# xmcd
#
# Track frame offsets:
#	150
#	19368
#	38688
#	56970
#	85189
#	104654
#	123476
#	144473
#	177819
#	197576
#	217713
#	235832
#	252766
#	270666
#	291851
#
# Disc length: 4162 seconds
#
# Revision: 0
# Processed by: cddbd v1.5.2PL0 Copyright (c) Steve Scherf et al.
# Submitted via: EasyCDDAExtractor 16.0.1.1
#
DISCID=d710400f
DTITLE=Various Artist - 2012 Steppin' Music Vol. 18
DYEAR=1900
DGENRE=
TTITLE0=Yolanda Adams - Be Still
TTITLE1=KEM ft. Chrisette Michelle - If It's Love
TTITLE2=Gina Darby - Yes
TTITLE3=DJ Calvin - Brothers' Gonna Work It Out
TTITLE4=Athene Wilson - We Were Meant To Be
TTITLE5=Cee Lo Green ft. Melanie Fiona - Foul For You
TTITLE6=DJ Rick - Bad Influence
TTITLE7=April Hill - I Want You
TTITLE8=Gabriella Anders - Fire Of Love
TTITLE9=UK Artist - American Stepper
TTITLE10=Free Life - Wish You Were Here
TTITLE11=Carmichael - 10 Feet Above Heaven
TTITLE12=Ledisi ft. Jaheim - Stay Together
TTITLE13=Avery Sunshine - All In My Head
TTITLE14=Stolen Records - The Steppers Life
EXTD=
EXTT0=
EXTT1=
EXTT2=
EXTT3=
EXTT4=
EXTT5=
EXTT6=
EXTT7=
EXTT8=
EXTT9=
EXTT10=
EXTT11=
EXTT12=
EXTT13=
EXTT14=
PLAYORDER=
